<?xml version="1.0" encoding="UTF-8"?>
<svg version="1.1" xmlns="http://www.w3.org/2000/svg" width="100" height="103">
<path d="M0 0 C33 0 66 0 100 0 C100 33.99 100 67.98 100 103 C67 103 34 103 0 103 C0 69.01 0 35.02 0 0 Z " fill="#FCFCFC" transform="translate(0,0)"/>
<path d="M0 0 C6.16109861 3.76035243 10.14750179 8.29193353 13.21484375 14.88671875 C15.07914274 23.12070594 14.48015588 29.47034019 10.44921875 36.91015625 C5.84706121 44.00716761 0.87552593 47.26571485 -7.03515625 50.19921875 C-14.50258785 51.54313968 -21.82614503 49.86593886 -28.19921875 45.828125 C-34.68775106 40.76123741 -38.23222702 34.29321241 -39.51171875 26.17578125 C-39.91746433 17.8686743 -37.75895176 11.32811335 -32.16796875 5.12890625 C-22.96624616 -3.42833771 -11.42851981 -5.88992432 0 0 Z " fill="#FFCC03" transform="translate(75.03515625,43.80078125)"/>
<path d="M0 0 C2.8515625 1.48046875 2.8515625 1.48046875 5 3 C5 3.66 5 4.32 5 5 C4.28714844 5.3403125 3.57429688 5.680625 2.83984375 6.03125 C-6.00381318 10.50664031 -12.17691755 15.67078715 -16 25 C-16.38107343 27.77137934 -16.41051378 30.51803074 -16.4375 33.3125 C-16.71077564 42.30964815 -16.71077564 42.30964815 -19.0625 46.4375 C-22.70981421 53.04743405 -21.28351961 61.69936999 -21 69 C-30.7721268 67.58816298 -38.30890662 62.84563709 -44.5078125 55.12109375 C-50.83548482 45.74325603 -52.29863668 35.43764161 -50.3125 24.4375 C-47.852356 14.80052214 -41.93393459 6.54803507 -33.3671875 1.42578125 C-22.10255269 -4.30506066 -11.96379929 -4.1650476 0 0 Z " fill="#030303" transform="translate(56,8)"/>
<path d="M0 0 C3.75990036 2.24402504 6.53249659 4.88267923 9.21875 8.32421875 C9.65316406 8.87464844 10.08757812 9.42507812 10.53515625 9.9921875 C13.40979693 14.52951234 13.59468858 19.19020039 13.65625 24.44921875 C13.66648193 25.13040771 13.67671387 25.81159668 13.68725586 26.51342773 C13.60650695 31.15338447 12.55693491 34.34248211 10.21875 38.32421875 C9.55875 38.32421875 8.89875 38.32421875 8.21875 38.32421875 C7.703125 37.29296875 7.1875 36.26171875 6.65625 35.19921875 C2.7979684 28.54469124 -2.79342403 24.62022724 -9.97265625 22.01953125 C-18.89624877 19.81035257 -26.87320459 20.73722359 -34.78125 25.32421875 C-35.791875 25.90171875 -36.8025 26.47921875 -37.84375 27.07421875 C-38.483125 27.48671875 -39.1225 27.89921875 -39.78125 28.32421875 C-40.34622539 20.94815121 -39.70055323 14.7309731 -35.78125 8.32421875 C-25.97637086 -2.63417558 -13.81616123 -6.39221745 0 0 Z " fill="#020202" transform="translate(80.78125,17.67578125)"/>
<path d="M0 0 C0.66 0.33 1.32 0.66 2 1 C-0.25711423 3.43739492 -2.62473216 5.11998465 -5.4375 6.875 C-11.78441764 11.0719893 -15.02197405 15.6028852 -17 23 C-17.79723293 27.31793238 -18.43582687 31.64591094 -19 36 C-19.33 36 -19.66 36 -20 36 C-20.9956762 17.9671978 -20.9956762 17.9671978 -15 11 C-10.60303862 6.42522032 -6.02235093 2.20329912 0 0 Z " fill="#E3E3E3" transform="translate(59,13)"/>
<path d="M0 0 C0.99 0.33 1.98 0.66 3 1 C2.69320312 1.84820313 2.38640625 2.69640625 2.0703125 3.5703125 C0.99392617 7.01946287 0.38548682 10.30159223 -0.125 13.875 C-0.29257812 15.02742188 -0.46015625 16.17984375 -0.6328125 17.3671875 C-0.75398438 18.23601563 -0.87515625 19.10484375 -1 20 C-1.33 20 -1.66 20 -2 20 C-2.05407567 17.41638482 -2.093707 14.83390745 -2.125 12.25 C-2.14175781 11.52039062 -2.15851562 10.79078125 -2.17578125 10.0390625 C-2.21072239 6.1955376 -2.17499684 3.25393228 0 0 Z " fill="#DDDDDD" transform="translate(41,29)"/>
<path d="M0 0 C0.33 0 0.66 0 1 0 C1 3.3 1 6.6 1 10 C-1.97 10 -4.94 10 -8 10 C-7.236875 9.278125 -6.47375 8.55625 -5.6875 7.8125 C-3.28715765 5.30051382 -1.70928296 2.99124519 0 0 Z " fill="#000000" transform="translate(99,93)"/>
<path d="M0 0 C1.0828125 1.11375 1.0828125 1.11375 2.1875 2.25 C4.68592573 4.69290515 7.23643202 6.8681047 10 9 C6.7 9 3.4 9 0 9 C0 6.03 0 3.06 0 0 Z " fill="#000000" transform="translate(0,94)"/>
<path d="M0 0 C3.3 0 6.6 0 10 0 C10 2.97 10 5.94 10 9 C9.278125 8.2575 8.55625 7.515 7.8125 6.75 C5.31407427 4.30709485 2.76356798 2.1318953 0 0 Z " fill="#000000" transform="translate(90,0)"/>
<path d="M0 0 C2.97 0 5.94 0 9 0 C8.2575 0.721875 7.515 1.44375 6.75 2.1875 C4.30709485 4.68592573 2.1318953 7.23643202 0 10 C0 6.7 0 3.4 0 0 Z " fill="#000000" transform="translate(0,0)"/>
<path d="M0 0 C1 3 1 3 0.07421875 5.2265625 C-0.38339844 6.01804687 -0.84101562 6.80953125 -1.3125 7.625 C-1.98732422 8.81996094 -1.98732422 8.81996094 -2.67578125 10.0390625 C-4 12 -4 12 -6 13 C-5.45128467 9.06754014 -4.78374039 5.56748077 -3 2 C-2.01 1.34 -1.02 0.68 0 0 Z " fill="#EEECE4" transform="translate(40,50)"/>
<path d="M0 0 C0.99 0.33 1.98 0.66 3 1 C2.1875 3.9375 2.1875 3.9375 1 7 C0.01 7.33 -0.98 7.66 -2 8 C-1.125 1.125 -1.125 1.125 0 0 Z " fill="#D6D6D6" transform="translate(41,29)"/>
</svg>
